<?xml version="1.0" encoding="UTF-8" standalone="no"?>
<!-- Generator: Adobe Illustrator 18.1.1, SVG Export Plug-In . SVG Version: 6.00 Build 0)  -->
<svg id="Layer_1" xmlns="http://www.w3.org/2000/svg" xml:space="preserve" viewBox="61.4 169.3 492.1 452.3" version="1.1" y="0px" x="0px" xmlns:xlink="http://www.w3.org/1999/xlink" enable-background="new 61.4 169.3 492.1 452.3">
<path d="m552.4 449.1c0.1 12.9 0.1 25.8 0.1 38.8h-0.2c0 33.7 0 67.4-0.1 101.1 0 7.6-2.4 12.3 1.3 19.3 0.3 5-7.1 10.8-8 10.6-12.1-2.5-23.7 1.1-36 0.9-21.9-0.4-43.7-0.4-65.6 0.1-16.2 0.4-32.4 0.4-48.5 1.2-3.9 0.2-7.9-0.2-11.7-0.8-5.2-0.7-10.2-0.3-15.4 0.3-6.8 0.9-13.8 1-20.6 0.7-5.7-0.3-8.4-3.5-8.6-9.2-0.1-3.3-0.1-6.6 0.2-9.9 0.8-7.4 5.2-10.9 12.3-9.1 9.9 2.4 20 2 30 2.1 9.3 0.1 18.5 0 27.8 0.1h0.9c28.3-0.9 56.6 0.6 84.8 0.4 7 0 14.1 0.9 21.2 1.4 2 0.1 4.1 0.4 6.1 0.3 5.6-0.5 8.5-3.7 8.3-9.4-0.1-3.3-0.9-6.6-1-9.8-0.5-14.9-1.1-29.8-1.1-44.7-0.1-40.2-0.1-80.3 0-120.5h0.1c0.1-19.7 0.1-39.3-0.1-59-0.2-20.8-6.1-40.2-18.3-57-9.9-13.7-22.6-24.8-38.2-32.2-6.3-3-12.5-5.8-19.3-7.4-5.4-1.2-9.3-4.4-11.8-9.3-1.5-2.9-3.3-5.7-4.9-8.6-0.8-1.4-1.5-2.8-1.8-4.3-1.1-4.2 1.1-7.5 5.4-7.4 4.8 0.2 9.9 0.3 14.4 1.9 9.5 3.3 18.8 7.3 27.8 11.6 5.6 2.7 10.8 6.4 15.9 10 4 2.8 7.5 6.2 11.4 9.2 18 14 29.5 32.4 36.5 53.8 3.2 9.7 5.6 19.6 5.7 30 0.2 22.9 0.5 45.9 0.7 68.8h0.4v18.3h-0.2v1.2c0 5.4 0 10.9 0.1 16.5zm-118.1-138.2h-0.2c-0.4 10.5-1 21-1.1 31.5-0.1 8 0.3 16 0.9 24 0.4 6.7 1.2 13.4-0.3 20.2-0.6 2.7-0.5 5.7-0.2 8.4 0.8 7.5 0.5 15 0.1 22.6-0.1 0.9-0.1 1.8-0.1 2.7v3.3c0.1 8.2 0.4 16.3 0.6 24.5 0.1 2.5 0.4 5.1-0.1 7.5-0.3 1.2-0.5 2.3-0.6 3.5v7.5c0 3.6 0 7.1 0.1 10.7 0.1 1.5 0.3 3.1 0.4 4.6 0.5 6.4 0.2 12.8-0.2 19.2-0.8 12.5-0.8 25.1-0.9 37.7 0 4.3 1.6 8.3 3.6 12.1 1.1 2 2 4.3 2.4 6.6 0.6 3.9-1.3 6.5-5.2 7-2.8 0.3-5.7 0.3-8.4-0.3-8.8-1.9-17.7-2.3-26.7-1.9-8.3 0.4-16.7 0.5-25 0.4-13.8-0.1-27.6-0.5-41.5-0.8-3.1-0.1-6.3 0.1-9.4 0.2l-23.1 0.3c-9.6 0.1-19.2 0.1-28.7 0.1-6.4 0-12.9-0.3-19.3-0.4-3.6-0.1-7.2-0.2-10.8 0.1-8.5 0.7-16.9 1.1-25.4-0.1-5.8-0.8-11.6-0.5-17.2 1.5-6.1 2.2-10.4 0.1-16.6-0.3-3.8-0.3-4.5-8.6-3.9-12.4 0.1-0.9 1.1-8.6 1-14-0.2-17.4-0.3-34.9-0.2-52.3 0.1-13.5 0.7-27 0.7-40.5 0-10.4-0.4-20.7-0.6-31.1h0.6c0-11.9 0-23.8-0.1-35.7 0-7.5-0.5-15.1-0.7-22.6-0.1-1.9-0.1-3.8-0.1-5.7 0.3-13.3 0.7-26.7 0.7-40 0-5.8-0.9-11.6-1.4-17.3 0-0.3-0.1-0.6-0.2-0.9-1.9-15.6 6.2-22.5 21.3-21.6 5.8 0.4 9 4.6 8.4 10.4-0.3 2.5-1.3 4.8-1.8 7.3-0.8 3.8-1.9 7.7-1.9 11.5 0 25 0.2 50 0.3 75 0 10.4-0.2 20.7-0.2 31.1 0 5.5 0.4 11 0.5 16.5 0.1 2.2 0.2 4.4 0.2 6.6-0.1 6.1-0.3 12.3-0.5 18.4 0.7 5.9 0.9 11.8-0.1 17.7-0.2 1.2-0.3 2.5-0.2 3.8 1.6 17-0.5 33.9-0.8 50.8-0.1 3.6-0.8 7.2-1 10.8-0.4 7.7 3.3 11.8 10.7 10.3 10.2-2.1 20.4-1.4 30.5-1.6 3.9-0.1 7.8 0.3 11.8 0.5 3.9 0.2 7.9 0.5 11.8 0.5 14 0.1 28 0.2 42 0 9.9-0.1 19.8-0.5 29.7-0.8 6.9-0.3 13.8-1.1 20.7-1 8.2 0.1 16.3 0.8 24.5 1.2 6.6 0.3 13.2 0.6 19.8 0.5 5.6-0.1 8.6-3.8 8.1-9.4-0.1-0.8-0.2-1.6-0.4-2.3-3.9-11.3-3.1-22.9-1.7-34.5 0.2-1.4 0.3-2.8 0.2-4.2v-0.1h-1c-0.4-7-1.4-13.9-0.3-20.9-0.1-2.4-0.1-4.8-0.1-7.2 0.1-8.5 0.2-16.9-1.1-25.3-0.2-1.1 0-2.2 0.2-3.3-0.2-2.2-0.1-4.5 0.3-6.8 0.5-3.7 0.5-7.5 0.6-11.2 0.1-3.1 0.1-6.3-0.1-9.4-0.4-5.8-0.8-11.6-1.5-17.3-0.5-3.8-0.4-7.5 0.9-11.1 1.4-3.9 1.6-8 1.1-12.1-0.3-2-0.5-4.1-0.1-6.1 1.2-6.3 0.7-12.5 0.3-18.8-0.6-8.3-0.5-16.6-0.7-24.9-0.1-5.8-0.3-11.6-0.4-17.4 0-1.6-0.2-3.2 0.1-4.7 1.4-7.2-0.3-14.1-2.6-20.8-2.5-7.4-4.7-14.9-8.3-22-7.9-15.5-19.3-27.3-34.3-35.9-7.1-4.1-14-8.4-21.5-11.6-9.1-3.9-18.5-4.4-28.2-4.4-2.8 0-5.7 0.2-8.4-0.2-5.2-0.6-10.4-0.5-15.4 0.8-1.1 0.3-2.1 0.6-3.2 0.7-14 1.4-26.2 7.3-37.3 15.7-4.5 3.5-9.4 4.9-15 3.5-3.5-0.9-7.1-1.4-10.5-2.6-6.8-2.4-7.9-8.2-2.8-13.2 1-1 2.1-1.9 3.3-2.6 11-6.4 21.3-13.9 33.1-19 0.7-0.3 1.4-0.7 2.2-0.9 11.5-3.1 23-6.3 34.6-9.1 2.8-0.7 5.9-0.1 8.9-0.1 3.7 0 7.5 0.3 11.2-0.3 4.6-0.7 9-0.5 13.4 1.2 4.3 1.6 8.7 2.7 13.1 3.8 10.4 2.6 20.5 6.1 29.6 11.9 0.4 0.3 0.8 0.6 1.2 0.7 7.1 1.7 12.1 6.4 16.9 11.5 5 5.2 10.3 10.1 15.3 15.3 1.7 1.8 3.1 4 4.6 6 3 4.2 5.9 8.5 9.1 12.5s5.2 8.4 6.4 13.5c1.4 5.8 3.4 11.5 5.5 17 2.5 6.4 3.9 12.9 4.3 19.7 0.5 8.4 1.4 16.9 2.1 25.3-0.3 0.6-0.3 1.7-0.3 2.8zm-126.4-89.2c-0.6-0.2-1.2-0.2-1.7-0.1-2.6 0.3-5.2 0.5-7.9 0.5-1.3 0-2.3 0.4-3.3 1.2-1.4 1.2-2.4 0.9-3.2-0.7-0.5-0.9-1-1.9-1.5-2.8-1-2-0.1-3.3 2.2-3.2 0.5 0 1.1 0.1 1.6 0.2 0.9 0.2 1.9 0.2 2.8 0.2 4.5 0 9 0.1 13.5 0.2 1.9 0.1 3.7-0.1 5.6-0.5 0.7-0.1 1.3-0.2 2-0.2 1.7 0.2 2.4 1.7 1.5 3.1-0.5 0.7-1.2 1.2-1.9 1.7-1.6 1-3.2 2-4.6 3.2-0.4 0.3-0.9 0.7-1.2 1-1.1 1.1-0.9 2.1 0.6 2.7 0.3 0.1 0.7 0.2 1 0.3 0.6 0.2 1.3 0.3 1.9 0.6 3.5 1.4 5.1 4.7 4 8.3-0.6 2.1-2 3.6-3.7 4.7-2.4 1.6-5.2 2.4-8.1 2.6-0.9 0.1-1.7 0.1-2.6 0.1-4.8 0-9.3-1.2-13.3-3.9-0.6-0.4-1.2-0.8-1.7-1.3-0.7-0.8-0.9-1.7-0.5-2.7s1.1-1.9 2-2.5c1-0.7 2.1-0.5 2.8 0.5 0.2 0.3 0.5 0.7 0.6 1 0.7 1.5 2 2.4 3.5 2.9 1 0.4 2 0.6 3 0.7 2.7 0.3 5.3 0.3 8-0.1 1.2-0.2 2.3-0.6 3.3-1.4 2-1.6 1.8-3.8-0.4-5.2-1.6-1-3.5-1.4-5.4-1.4-0.8 0-1.7 0.1-2.5 0.1-0.5 0-1 0.1-1.5 0.1-0.8-0.1-1.6-0.4-1.9-1.3-0.3-0.8 0.2-1.5 0.8-2 0.5-0.5 1.1-0.8 1.7-1.1 1.4-0.8 2.7-1.6 3.9-2.5 0.4-0.4 0.9-0.7 1.2-1.2 0.6-0.8 0.3-1.5-0.6-1.8zm68.9 45.3c-2.4 1.4-5 2.6-7.6 3.8-4.5 2.1-8.2 5.1-11.4 8.9-2.4 2.8-5.2 5.5-8.1 7.8-3.8 3.1-6.4 6.8-7.4 11.7-0.3 1.5-0.7 3.1-1.3 4.5-2 4.4-6.5 5.4-9.9 2-1.3-1.3-2.4-3-3.2-4.6-2.3-4.8-4.4-9.7-6.5-14.6s-1.4-7.7 2.4-11.5c5-5 9.8-10.1 14.8-15.1 1.5-1.5 3.2-3 5-4.3 5.5-4.1 11.2-8.1 16.7-12.3 3.2-2.4 6.5-3.3 10.1-1.4 6.7 3.7 9.8 9.8 11.2 17 0.1 3.7-1.7 6.4-4.8 8.1zm12.7 247.6c-0.4-0.1-0.8-0.2-1.1-0.3 0.2-1.2 0.4-2.3 0.7-4.4 1.8 2.3 1.5 3.5 0.4 4.7zm-4.3-50.7c-1.4-1.7-2.9-3.2-4.1-4.9-1-1.4-0.5-3 0.7-4.3 1.4-1.4 3.1-2.6 5-1.7 1.2 0.6 2.5 2 2.8 3.3 0.8 3.3-1.1 5.6-4.4 7.6zm-137.2 63.3c0.2 2.4-1.4 3.9-3.3 4-1.5 0.1-2.9-0.2-3.3-2-0.3-1.6 1.6-3.7 3.6-3.5 1.1 0.2 2.2 1.1 3 1.5zm-102.1 16.3c-1.6-1.3-1.7-3.1-0.6-4.6s2.5-2.8 4.1-3.8c2.4-1.4 4-0.3 3.7 3.5-0.5 0.9-1.3 2.8-2.5 4.3-1.2 1.4-3.1 1.9-4.7 0.6zm11.1-256.2c0.1-2.5 2.1-4.4 4.6-4.3s4.3 2.2 4.2 4.7c-0.1 2.6-2.1 4.5-4.5 4.3-2.5-0.2-4.4-2.2-4.3-4.7zm96 294h4.4c0.9 1.8-0.1 2.7-1.3 2.9-1.9 0.4-2.8-0.7-3.1-2.9zm16.6-331.1c5.9 4 10.6 9.8 15.8 14.8 2.5 2.4 4.8 4.9 7.2 7.4 0.8 0.8 1.8 1.4 2.3 2.3 4.5 8.2 11.2 15.1 14.7 24 2.9 7.4 6.3 14.7 9.8 21.9 3.2 6.5 5.3 13.1 3.8 20.4-0.4 2.1-0.2 4.4 0.2 6.6 0.9 4.8 0.6 9.6 0.4 14.5-0.3 7.7-0.1 15.4 0.5 23 0.3 4.3 0.8 8.4-0.3 12.6-0.6 2.3-0.8 4.7-0.7 7 0.1 2.7 0.3 5.4 0.5 8h0.8c0 0.3-0.1 0.6 0 0.9 1.4 7.5-0.1 15-0.1 22.5-0.1 5.1-0.1 10.2-0.2 15.3 0.2 0.6 0.4 1.3 0.7 1.9 1.8 4.4 1.6 8.7 0.5 13.3-0.9 3.6-0.8 7.4-0.9 11.2-0.1 3.1 0.1 6.3 0.2 9.4v0.5h-1.5c0.2 5.8 0.8 11.6 1.1 17.5 0.2 3.3 0.5 6.6 0.4 9.9-0.2 5.3-3.1 8.1-8.4 8-3.8-0.1-7.5-0.4-11.3-1-6-0.8-9.8-4.9-8.7-10.7 1.4-7.9 1.5-15.8 1.3-23.7h-0.4c-0.3-5.2-0.9-10.3-1-15.5-0.1-2.3 0.5-4.7 1-7 0.2-0.9 0.3-1.9 0.5-2.8-1.1-6.5-0.7-12.9-0.2-19.4-0.3-4.8-0.2-9.6-0.3-14.3 0-1.7 0.4-3.5 0.2-5.2-1.7-9.6 0.1-19.1 0.4-28.7 0.1-4.4-0.2-8.8-0.6-13.2-0.5-6.3-0.6-12.5 0.6-18.8 0.8-4.5 0.7-9.4 0.3-14-0.6-5.6-2.1-11.1-3-16.7-1.5-9.6-5.2-18.4-9.9-26.8-2.4-4.2-5.6-7.9-8.5-11.8-1.9-2.5-4.2-4.7-5.8-7.4-3.1-4.9-7.2-8.7-12.3-11.4-1.9-1-3.9-2.2-5.5-3.7-4.5-4.1-9.5-7.4-15.2-9.4-9.8-3.4-19.7-6.4-29.6-9.4-1-0.3-2.2-0.5-3.3-0.4-9.7 0.6-19.4 0.4-29 2.4-8.6 1.8-16.3 5.6-24.5 8.3-0.6 0.2-1.2 0.4-1.7 0.7-5.6 3.8-11.2 7.5-16.7 11.4-3.7 2.7-7.1 5.8-10.4 8.8-1.6 1.4-3.2 3-4.5 4.8-3.4 4.5-6.8 9.1-9.9 13.8-2.1 3.3-3.8 6.8-5.6 10.3-5.1 9.7-8.2 20-9.8 30.8-0.1 0.9-0.3 1.9-0.2 2.8 0.1 8.2 0.2 16.3 0.3 24.5 0 8.5-0.1 17-0.1 25.4v75.9h-0.3c0.1 8 0.1 16 0.2 24 0.1 11 0.6 22 0.7 33 0.1 9.9 0.2 19.8-0.1 29.6-0.2 6.6-1 13.1-1.4 19.7-0.2 3-0.5 6-0.4 8.9 0.3 6.3 3.8 9.5 10 9.3 3.8-0.1 7.5-0.9 11.2-1.2 4.7-0.4 9.4-0.8 14.1-0.8 14.3-0.1 28.6-0.1 42.9-0.1 3.6 0 7.2 0.6 10.8 0.6 13.2 0 26.4-0.1 39.6-0.2 5 0 10.1-0.4 15.1-0.3 11.6 0.2 23.3 0.6 34.9 1 5.3 0.2 10.7 0.6 16 0.9 1.9 0.1 3.8 0.3 5.6 0.2 3.6-0.3 5.4-2 6.2-5.4 0.2-0.9 0.3-1.9 0.4-2.8 0.7-6.4 2.9-8.9 9.4-9.5 2.9-0.3 6-0.3 8.9 0 4.8 0.6 7.1 3.6 6.9 8.5 0 1.1-0.2 2.2-0.4 3.3-1 5.4-1.3 10.9-0.4 16.4 0.4 2.1 0.5 4.4 0.2 6.5-0.5 4.4-3.1 6.8-7.4 7.2-1.7 0.2-3.5 0.3-5.2 0-13.9-2.4-27.9-1.8-41.9-1.5-16 0.4-32.1 0.3-48.1 0.2-9.1-0.1-18.1 1.2-27.2-0.1-3.2-0.4-6.6 0.3-9.9 0.4-9.6 0.2-19.2 0.3-28.7 0.4-10.2 0.1-20.4 0.4-30.7 0.4-3.9 0-7.8-0.4-11.7-0.5-3.1-0.1-6.3 0.2-9.4 0.2-3.8 0.1-7.6 0.6-11.3 0.2-4.5-0.5-8.7-0.1-13.1 0.7-3.4 0.6-6.9 0.9-10.3 0.5-6.3-0.9-8.8-6.2-5.1-11.4 3.9-5.6 5.2-11.6 5-18.2-0.4-9.3-0.5-18.5-0.5-27.8 0-6.9 0.4-13.8 0.6-20.7 0.1-2.8 0.4-5.7 0-8.5-1.2-9.2-0.8-18.5-0.4-27.8 0.3-6.5 0.2-13 0.2-19.5-0.1-2.4-0.3-4.8-0.4-7.3-0.1-3.3-0.2-6.6-0.2-9.9 0.2-27 1-54.1 0.4-81.1-0.3-17.3 0.5-34.5 0.3-51.8 0-4 1.2-8 1.9-12 1.4-8.3 4.1-16 8.6-23.2 0.9-1.4 1.4-3.1 2-4.8 2.2-6.1 5.6-11.5 9.9-16.4 3.4-3.9 5.9-8.4 9-12.6 1.7-2.2 3.5-4.4 5.7-6.1 4.3-3.2 8.8-6.1 13.3-9 4.6-3.1 8.9-6.5 12.3-10.9 2.5-3.3 5.9-4.9 10-5.6 4-0.7 7.9-1.9 11.8-3.1 10.7-3.4 21.3-6.4 32.8-5.7 4.8 0.3 9.7-0.1 14.6-0.6 5.1-0.5 9.9-0.4 14.9 1.3 11.5 3.9 23.1 7.1 34.5 11.2 7 2.9 14.1 6.1 20.2 10.3z" fill="#BF4E3D"/>
</svg>
