<?xml version="1.0" encoding="UTF-8" standalone="no"?>
<!-- Generator: Adobe Illustrator 18.1.1, SVG Export Plug-In . SVG Version: 6.00 Build 0)  -->
<svg id="Layer_1" xmlns="http://www.w3.org/2000/svg" xml:space="preserve" viewBox="0 0 327.2 16.5" version="1.1" y="0px" x="0px" xmlns:xlink="http://www.w3.org/1999/xlink" enable-background="new 0 0 327.2 16.5">
	<path d="m13.6 2.2c-1.2-1.3-3.2-2.2-4.9-2.2-4.8 0-8.7 3.7-8.7 8.2s3.9 8.3 8.7 8.3c1.8 0 3.7-1 4.9-2.2 0.2 0.3 0.4 1 0.5 1.6h0.9v-6.3h-0.9c-0.7 3.4-2.6 5.4-5.4 5.4-4.1 0-5.2-3.9-5.2-6.8s1.1-6.8 5.2-6.8c2.8 0 4.7 2.1 5.4 5.5h0.9v-6.3h-0.9c-0.1 0.5-0.3 1.2-0.5 1.6zm26.6-2.2c-5 0-9.1 3.7-9.1 8.2s4.1 8.3 9.1 8.3 9.1-3.7 9.1-8.3c0.1-4.5-4-8.2-9.1-8.2zm0 15c-4.2 0-5.7-3.8-5.7-6.8s1.5-6.8 5.7-6.8 5.7 3.8 5.7 6.8c0 3.1-1.4 6.8-5.7 6.8zm35.6-2.7l-5.4-11.7h-5.6v0.9c2.6 0 3 0.6 3 3.8v5.9c0 3.3-0.4 3.9-3 3.9v0.9h7.3v-1c-2.6 0-3-0.6-3-3.9v-6.6l5.5 11.9h0.8l5.6-12v6.7c0 3.3-0.4 3.9-3 3.9v0.9h8.7v-0.9c-2.6 0-3-0.6-3-3.9v-5.8c0-3.3 0.4-3.8 3-3.8v-0.9h-5.5l-5.4 11.7zm25.9-10.8c2.6 0 3 0.6 3 3.8v5.9c0 3.3-0.4 3.9-3 3.9v0.9h9.1v-1c-2.6 0-3-0.6-3-3.9v-5.8c0-3.3 0.4-3.8 3-3.8v-0.9h-9.1v0.9zm35.6 0c2.6 0 3 0.6 3 3.8v6.2l-10-10.9h-4.5v0.9c2.6 0 3 0.6 3 3.8v5.9c0 3.3-0.4 3.9-3 3.9v0.9h7.3v-1c-2.6 0-3-0.6-3-3.9v-6.3l10.6 11.6h1v-11.1c0-3.3 0.4-3.8 3-3.8v-0.9h-7.3v0.9zm32.1 8.4c2.2 0 2.9 0.6 2.9 2.2 0 2.1-1.9 2.9-4.2 2.9-4.1 0-5.2-3.9-5.2-6.8s1.1-6.8 5.2-6.8c2.8 0 4.7 2.1 5.4 5.5h0.9v-6.3h-0.9c-0.2 0.6-0.4 1.2-0.6 1.6-1.2-1.3-3.1-2.2-4.9-2.2-4.8 0-8.7 3.7-8.7 8.2s3.9 8.3 8.7 8.3c1.9 0 5.1-1.4 7-1.4v-1.4c0-3.3 0.4-3.8 3-3.8v-0.9h-8.6v0.9zm52.7-2.5l-2.5-1.2c-2.2-1-3.1-1.7-3.1-2.8s1.2-1.9 2.5-1.9c2.4 0 3.6 1.8 3.9 3.9h1v-5.4h-0.9c-0.1 0.6-0.4 1.1-0.6 1.2-0.8-0.6-2.1-1.2-3.6-1.2-2.8 0-4.9 1.9-4.9 4.1 0 2 1.4 3.5 3.2 4.4l2.6 1.2c1.9 0.9 2.9 1.8 2.9 3 0 1.4-1.2 2.2-2.6 2.2-2.7 0-4.8-1.8-5.2-4.8h-0.9v6.3h0.9c0.1-0.6 0.5-1.3 0.7-1.6 0.7 0.6 2.3 1.6 4.1 1.6 3.1 0 5.6-2 5.6-4.9 0-1.3-0.9-3-3.1-4.1zm27.6-7.4c-5 0-9.1 3.7-9.1 8.2s4.1 8.3 9.1 8.3 9.1-3.7 9.1-8.3c0-4.5-4.1-8.2-9.1-8.2zm0 15c-4.2 0-5.7-3.8-5.7-6.8s1.5-6.8 5.7-6.8 5.7 3.8 5.7 6.8c0 3.1-1.5 6.8-5.7 6.8zm34-15c-5 0-9.1 3.7-9.1 8.2s4.1 8.3 9.1 8.3 9.1-3.7 9.1-8.3c0.1-4.5-4-8.2-9.1-8.2zm0 15c-4.2 0-5.7-3.8-5.7-6.8s1.5-6.8 5.7-6.8 5.7 3.8 5.7 6.8c0.1 3.1-1.4 6.8-5.7 6.8zm36.2-14.4v0.9c2.6 0 3 0.6 3 3.8v6.2l-10-10.9h-4.5v0.9c2.6 0 3 0.6 3 3.8v5.9c0 3.3-0.4 3.9-3 3.9v0.9h7.3v-1c-2.6 0-3-0.6-3-3.9v-6.3l10.6 11.6h1v-11.1c0-3.3 0.4-3.8 3-3.8v-0.9h-7.4z" fill="#fff"/>
</svg>
