<?xml version="1.0" encoding="UTF-8" standalone="no"?>
<!-- Generator: Adobe Illustrator 18.1.1, SVG Export Plug-In . SVG Version: 6.00 Build 0)  -->
<svg id="Layer_1" xmlns="http://www.w3.org/2000/svg" xml:space="preserve" viewBox="0 0 532 12" version="1.1" y="0px" x="0px" xmlns:xlink="http://www.w3.org/1999/xlink" enable-background="new 0 0 532 12">
		<path d="m5.3 0.6h-5.3v0.5c1.7 0 2 0.4 2 2.9v4c0 2.5-0.3 2.9-2 2.9v0.5h5.8v-0.5c-1.7 0-2-0.4-2-2.9v-1.2h1.4c2.6 0 4.1-1.4 4.1-3.1 0-1.8-1.4-3.1-4-3.1zm0 5.2h-1.5v-4.3h1.4c1.4 0 2.1 1 2.1 2.2s-0.6 2.1-2 2.1zm20.8-4.7c1.7 0 2 0.4 2 2.9v3.6c0 2.2-1.3 3.2-3.1 3.2s-3-1-3-3.2v-3.6c0-2.5 0.3-2.9 2-2.9v-0.5h-5.8v0.5c1.7 0 2 0.4 2 2.9v3.4c0 2.9 2 4.5 4.5 4.5s4.5-1.5 4.5-4.5v-3.4c0-2.5 0.3-2.9 2-2.9v-0.5h-5.2v0.5zm22.4 7.5l-1.5-1.9c1.9-0.3 3.1-1.5 3.1-3 0-1.8-1.4-3.1-4.1-3.1h-5.3v0.5c1.7 0 2 0.4 2 2.9v4c0 2.5-0.3 2.9-2 2.9v0.5h5.8v-0.5c-1.7 0-2-0.4-2-2.9v-1.2h0.7l3.4 4.7h3.2v-0.5c-1.1-0.2-2.2-1.2-3.3-2.4zm-4-2.8v-4.3h1.5c1.4 0 2.1 1 2.1 2.2s-0.7 2.2-2.1 2.2h-1.5zm16.1-4.7c1.7 0 2 0.4 2 2.9v4c0 2.5-0.3 2.9-2 2.9v0.5h5.8v-0.5c-1.7 0-2-0.4-2-2.9v-4c0-2.5 0.3-2.9 2-2.9v-0.5h-5.8v0.5zm14.9-0.5l-0.2 3.1h0.5l0.2-0.5c0.3-1.2 0.5-1.6 2.8-1.6h1.5v6.4c0 2.5-0.3 2.9-2 2.9v0.5h5.8v-0.5c-1.7 0-2-0.4-2-2.9v-6.4h1.3c2.3 0 2.6 0.4 2.9 1.6l0.1 0.5h0.6l-0.2-3.1h-11.3zm27.2 0.5c1.7 0 1.8 0.4 0.7 1.9l-2 2.9-2-2.9c-1-1.5-0.9-1.9 0.7-1.9v-0.5h-5.6v0.5c1.3 0 1.8 0.5 3 2.2l2.5 3.7v1c0 2.5-0.3 2.9-2 2.9v0.5h5.8v-0.5c-1.7 0-2-0.4-2-2.9v-1.1l2.5-3.7c1.1-1.6 1.7-2.2 3.1-2.2v-0.4h-4.8v0.5zm41 1.6l-2.5 0.9 0.8-2.4c0.2-0.6-0.3-1.2-0.9-1.2s-1.1 0.6-0.9 1.2l0.9 2.5 2.6 0.9c0.6 0.2 1.2-0.3 1.2-0.9s-0.6-1.1-1.2-1zm-7.2 5.6l-2.7-0.9c-0.6-0.2-1.1 0.3-1.1 0.9s0.6 1.1 1.1 0.9l2.5-0.8-0.8 2.4c-0.2 0.6 0.4 1.2 0.9 1.2 0.6 0 1.1-0.6 0.9-1.2l-0.8-2.5zm7.2-0.9l-2.6 0.9-0.9 2.6c-0.2 0.6 0.4 1.2 0.9 1.2 0.6 0 1.1-0.6 0.9-1.2l-0.9-2.5 2.4 0.8c0.6 0.2 1.2-0.4 1.2-0.9 0.2-0.6-0.4-1.1-1-0.9zm-9.8-2.8l2.6-0.9 0.9-2.6c0.2-0.6-0.3-1.2-0.9-1.2s-1.1 0.6-0.9 1.2l0.8 2.4-2.4-0.8c-0.6-0.2-1.1 0.3-1.1 0.9-0.2 0.7 0.4 1.2 1 1zm5.3 1.5l2.1 0.7c0.6 0.1 1.2-0.4 1.2-0.9 0-0.6-0.6-1.1-1.2-0.9l-2.1 0.7 0.6-1.9c0.2-0.6-0.3-1.2-0.9-1.2s-1.1 0.6-0.9 1.2l0.6 1.9-2.1-0.7c-0.6-0.1-1.1 0.4-1.1 0.9 0 0.6 0.6 1.1 1.1 0.9l2.1-0.7-0.6 1.9c-0.2 0.6 0.3 1.2 0.9 1.2s1.1-0.6 0.9-1.2l-0.6-1.9zm41.3-4.3c-0.8-1-2.1-1.7-3.3-1.7-3.2 0-5.7 2.7-5.7 5.8 0 3.2 2.6 5.9 5.7 5.9 1.2 0 2.6-0.7 3.3-1.7 0.2 0.2 0.4 0.8 0.5 1.2h0.5v-4.2h-0.5c-0.5 2.3-1.8 3.8-3.8 3.8-2.8 0-3.7-2.8-3.7-4.9s0.8-4.9 3.7-4.9c2 0 3.3 1.5 3.8 3.8h0.5v-4.3h-0.5c-0.1 0.4-0.3 1-0.5 1.2zm17.3-0.7c1.7 0 2 0.4 2 2.9v3.6c0 2.2-1.3 3.2-3.1 3.2s-3-1-3-3.2v-3.6c0-2.5 0.3-2.9 2-2.9v-0.5h-5.8v0.5c1.7 0 2 0.4 2 2.9v3.4c0 2.9 2 4.5 4.5 4.5s4.5-1.5 4.5-4.5v-3.4c0-2.5 0.3-2.9 2-2.9v-0.5h-5.2v0.5zm22.8 7.8c-0.3 1.2-0.6 1.6-2.9 1.6h-0.9c-1.7 0-2-0.4-2-2.9v-3.6c0-2.5 0.3-2.9 2-2.9v-0.5h-5.8v0.5c1.7 0 2 0.4 2 2.9v4c0 2.5-0.3 2.9-2 2.9v0.5h10.1l0.2-3h-0.5l-0.2 0.5zm6.6-8.3l-0.2 3.1h0.5l0.1-0.5c0.3-1.2 0.5-1.6 2.8-1.6h1.5v6.4c0 2.5-0.3 2.9-2 2.9v0.5h5.8v-0.5c-1.7 0-2-0.4-2-2.9v-6.4h1.3c2.3 0 2.6 0.4 2.9 1.6l0.1 0.5h0.5l-0.2-3.1h-11.1zm18.8 0.5c1.7 0 2 0.4 2 2.9v4c0 2.5-0.3 2.9-2 2.9v0.5h5.8v-0.5c-1.7 0-2-0.4-2-2.9v-4c0-2.5 0.3-2.9 2-2.9v-0.5h-5.8v0.5zm21.4 0c2 0 2 0.4 1.3 1.9l-2.6 5.9-2.5-5.9c-0.6-1.5-0.5-1.9 1.4-1.9v-0.5h-5.7v0.5c1.3 0 1.6 0.3 2.5 2.2l3.8 8.6h0.3l3.8-8.6c0.8-1.9 1-2.2 2.6-2.2v-0.5h-4.8v0.5zm19.6 7.6l-3.7-8.6h-0.3l-3.7 8.6c-0.8 1.9-1.1 2.2-2.6 2.2v0.5h4.8v-0.5c-2 0-2-0.4-1.4-1.9l0.5-1.2h4.2l0.5 1.2c0.6 1.5 0.5 1.9-1.4 1.9v0.5h5.7v-0.5c-1.4 0-1.7-0.3-2.6-2.2zm-6-1.8l1.7-3.8 1.7 3.8h-3.4zm14.3-6.3l-0.2 3.1h0.5l0.1-0.5c0.3-1.2 0.5-1.6 2.8-1.6h1.5v6.4c0 2.5-0.3 2.9-2 2.9v0.5h5.8v-0.5c-1.7 0-2-0.4-2-2.9v-6.4h1.3c2.3 0 2.6 0.4 2.9 1.6l0.1 0.5h0.5l-0.2-3.1h-11.1zm18.8 0.5c1.7 0 2 0.4 2 2.9v4c0 2.5-0.3 2.9-2 2.9v0.5h5.8v-0.5c-1.7 0-2-0.4-2-2.9v-4c0-2.5 0.3-2.9 2-2.9v-0.5h-5.8v0.5zm20.7-0.9c-3.4 0-6.2 2.7-6.2 5.8 0 3.2 2.8 5.9 6.2 5.9s6.2-2.6 6.2-5.9c0-3.2-2.8-5.8-6.2-5.8zm0 10.7c-3 0-4.1-2.7-4.1-4.9s1.1-4.9 4.1-4.9 4.1 2.7 4.1 4.9-1.1 4.9-4.1 4.9zm20.2-9.8c1.7 0 2 0.4 2 2.9v4.5l-6.7-7.9h-3.1v0.5c1.7 0 2 0.4 2 2.9v4c0 2.5-0.3 2.9-2 2.9v0.5h4.9v-0.5c-1.7 0-2-0.4-2-2.9v-4.9l7.4 8.7h0.5v-7.8c0-2.5 0.3-2.9 2-2.9v-0.5h-5v0.5zm42.1 6.3l-2.6 0.9-0.9 2.6c-0.2 0.6 0.4 1.2 0.9 1.2 0.6 0 1.1-0.6 0.9-1.2l-0.9-2.5 2.4 0.8c0.6 0.2 1.2-0.4 1.2-0.9 0.2-0.6-0.4-1.1-1-0.9zm-9.8-2.8l2.6-0.9 0.9-2.6c0.2-0.6-0.3-1.2-0.9-1.2s-1.1 0.6-0.9 1.2l0.8 2.4-2.4-0.8c-0.6-0.2-1.1 0.3-1.1 0.9-0.2 0.7 0.4 1.2 1 1zm9.8-1.9l-2.5 0.9 0.8-2.4c0.2-0.6-0.3-1.2-0.9-1.2s-1.1 0.6-0.9 1.2l0.9 2.5 2.6 0.9c0.6 0.2 1.2-0.3 1.2-0.9s-0.6-1.1-1.2-1zm-7.2 5.6l-2.7-0.9c-0.6-0.2-1.1 0.3-1.1 0.9s0.6 1.1 1.1 0.9l2.5-0.8-0.8 2.4c-0.2 0.6 0.4 1.2 0.9 1.2 0.6 0 1.1-0.6 0.9-1.2l-0.8-2.5zm2.7-2.2l2.1 0.7c0.6 0.1 1.2-0.4 1.2-0.9 0-0.6-0.6-1.1-1.2-0.9l-2.1 0.7 0.6-1.9c0.2-0.6-0.3-1.2-0.9-1.2s-1.1 0.6-0.9 1.2l0.6 1.9-2.1-0.7c-0.6-0.1-1.1 0.4-1.1 0.9 0 0.6 0.6 1.1 1.1 0.9l2.1-0.7-0.6 1.9c-0.2 0.6 0.3 1.2 0.9 1.2s1.1-0.6 0.9-1.2l-0.6-1.9zm37.2-5.5h-5.3v0.5c1.7 0 2 0.4 2 2.9v4c0 2.5-0.3 2.9-2 2.9v0.5h5.8v-0.5c-1.7 0-2-0.4-2-2.9v-1.2h1.4c2.6 0 4.1-1.4 4.1-3.1 0-1.8-1.4-3.1-4-3.1zm0 5.2h-1.4v-4.3h1.4c1.4 0 2.1 1 2.1 2.2s-0.7 2.1-2.1 2.1zm17.8 2.8l-1.6-1.9c1.9-0.3 3.1-1.5 3.1-3 0-1.8-1.4-3.1-4.1-3.1h-5.3v0.5c1.7 0 2 0.4 2 2.9v4c0 2.5-0.3 2.9-2 2.9v0.5h5.8v-0.5c-1.7 0-2-0.4-2-2.9v-1.2h0.7l3.5 4.7h3.2v-0.5c-1.1-0.2-2.2-1.2-3.3-2.4zm-4-2.8v-4.3h1.4c1.4 0 2.1 1 2.1 2.2s-0.7 2.2-2.1 2.2h-1.4zm19.3-5.6c-3.4 0-6.2 2.7-6.2 5.8 0 3.2 2.8 5.9 6.2 5.9s6.2-2.6 6.2-5.9c0-3.2-2.8-5.8-6.2-5.8zm0 10.7c-3 0-4.1-2.7-4.1-4.9s1.1-4.9 4.1-4.9 4.1 2.7 4.1 4.9-1.1 4.9-4.1 4.9zm22.5-9.1c-0.8-1-2.1-1.7-3.3-1.7-3.2 0-5.7 2.7-5.7 5.8 0 3.2 2.6 5.9 5.7 5.9 1.2 0 2.6-0.7 3.3-1.7 0.2 0.2 0.4 0.8 0.5 1.2h0.5v-4.2h-0.5c-0.5 2.3-1.8 3.8-3.8 3.8-2.8 0-3.7-2.8-3.7-4.9s0.8-4.9 3.7-4.9c2 0 3.3 1.5 3.8 3.8h0.5v-4.3h-0.5c-0.2 0.4-0.3 1-0.5 1.2zm17.1 7.1c-0.3 1.2-0.6 1.6-2.9 1.6h-0.3c-1.7 0-2-0.4-2-2.9v-1.5h0.2c2.5 0 2.7 0.3 2.7 2h0.5v-4.9h-0.5c0 1.7-0.2 2-2.7 2h-0.2v-3.7h1.7c2.3 0 2.6 0.5 2.9 1.6l0.1 0.5h0.5l-0.2-3h-8.9v0.5c1.7 0 2 0.4 2 2.9v4c0 2.5-0.3 2.9-2 2.9v0.5h9.5l0.2-3h-0.5l-0.1 0.5zm13.1-3.3l-1.7-0.9c-1.5-0.8-2.2-1.3-2.2-2.2s0.8-1.5 1.8-1.5c1.8 0 2.5 1.8 2.7 3.3h0.5v-4.1h-0.5c-0.1 0.4-0.3 0.6-0.4 0.8-0.5-0.4-1.3-0.8-2.4-0.8-1.8 0-3.2 1.3-3.2 2.9 0 1.4 0.9 2.4 2.1 3.1l1.7 0.9c1.4 0.7 2.1 1.4 2.1 2.2 0 1.1-0.9 1.7-2 1.7-1.9 0-3.3-1.2-3.5-3.3h-0.5v4.3h0.5c0.1-0.4 0.3-0.8 0.5-0.9 0.5 0.3 1.5 0.9 2.8 0.9 2 0 3.6-1.4 3.6-3.4 0.1-1.2-0.4-2.3-1.9-3zm14.4 0l-1.7-0.9c-1.5-0.8-2.2-1.3-2.2-2.2s0.8-1.5 1.8-1.5c1.8 0 2.5 1.8 2.7 3.3h0.5v-4.1h-0.5c0 0.4-0.3 0.6-0.4 0.8-0.5-0.4-1.3-0.8-2.4-0.8-1.8 0-3.2 1.3-3.2 2.9 0 1.4 0.9 2.4 2.1 3.1l1.7 0.9c1.4 0.7 2.1 1.4 2.1 2.2 0 1.1-0.9 1.7-2 1.7-1.9 0-3.3-1.2-3.5-3.3h-0.5v4.3h0.5c0.1-0.4 0.3-0.8 0.5-0.9 0.5 0.3 1.5 0.9 2.8 0.9 2 0 3.6-1.4 3.6-3.4 0.1-1.2-0.4-2.3-1.9-3z" fill="#fff"/>
</svg>
