<?xml version="1.0" encoding="UTF-8" standalone="no"?>
<!-- Generator: Adobe Illustrator 18.1.1, SVG Export Plug-In . SVG Version: 6.00 Build 0)  -->
<svg id="Layer_1" xmlns="http://www.w3.org/2000/svg" xml:space="preserve" viewBox="0 0 33.6 33.6" version="1.1" y="0px" x="0px" xmlns:xlink="http://www.w3.org/1999/xlink" enable-background="new 0 0 33.6 33.6">
<path id="twitter" d="m10.6 30.4c-2.6 0-5.1-0.3-7.5-1.3-0.5-0.2-1.2-0.4-0.9-1.1 0.1-0.3 0.6-0.6 1-0.6 1.7-0.3 3.4-0.3 5-1.1 0.5-0.3 1.1-0.5 1.2-1.1 0.1-0.8-0.4-1.2-0.9-1.3-2.4-0.7-3.9-2-3.7-4.8 0-0.6-1-1.2-1.6-1.9-0.9-1.2-2.2-2.4-0.5-4 0.8-0.8 0.1-1.6-0.3-2.3-0.7-1.3-1.1-2.7-0.9-4.1 0.2-1.5 1.2-2 2.3-0.9 1.9 1.9 4 3.5 6.6 4.5 0.9 0.3 1.9 0.7 2.8 0.9 2.9 0.8 3 0.7 3.6-2.3 1-4.9 5-7 9.5-5.1 1 0.4 1.9 1 3.2 1 2.1 0 3.3 1.5 2.2 3-1.6 2.1-1.5 4.5-2 6.8-2 9.5-9.6 15.7-19.1 15.7z" fill="#fff" clip-rule="evenodd" fill-rule="evenodd"/>
</svg>
