<?xml version="1.0" encoding="UTF-8" standalone="no"?>
<!-- Generator: Adobe Illustrator 18.1.1, SVG Export Plug-In . SVG Version: 6.00 Build 0)  -->
<svg id="Layer_1" xmlns="http://www.w3.org/2000/svg" xml:space="preserve" viewBox="0 0 33.6 33.6" version="1.1" y="0px" x="0px" xmlns:xlink="http://www.w3.org/1999/xlink" enable-background="new 0 0 33.6 33.6">
<path id="ig" d="m32.8 17.5c0 3.1 0.1 6.1 0 9.2-0.1 4.4-2.2 6.7-6.6 6.8-6.2 0.2-12.5 0.2-18.7 0-4.4-0.1-6.5-2.5-6.6-6.9-0.1-6.1 0-12.2 0.1-18.3 0-4.2 2.2-6.5 6.3-6.6 6.2-0.1 12.5-0.1 18.7-0.1 4.4 0.1 6.6 2.3 6.7 6.7 0.1 3.1 0.1 6.1 0.1 9.2zm-16.3 13c3.2 0 6.4 0.1 9.6 0 2.5-0.1 3.5-1 3.6-3.4 0.2-3.7 0.1-7.5 0.1-11.2 0-1.5-1-2-2.4-2-1.5 0-2.2 0.7-2 2.2 0.1 0.5 0.1 1.1 0.1 1.6-0.1 4.9-3.9 8.5-8.8 8.4s-8.6-3.9-8.5-8.7c0-0.5 0.2-1 0.3-1.6 0.1-1.1-0.4-1.7-1.6-1.9-2-0.3-3 0.4-3 2.5 0 3.3 0 6.7 0.1 10 0.1 3 1 4 4.2 4.1 2.7 0.1 5.5 0 8.3 0zm0.4-7.3c3.2 0 5.7-2.7 5.6-6-0.1-3.1-2.6-5.5-5.7-5.5-3 0-5.5 2.5-5.6 5.6-0.1 3.2 2.5 5.9 5.7 5.9zm12.5-15.2c0-2.5-0.6-3-3.1-3-2.4 0-3 0.6-2.9 3.1 0 2.3 0.5 2.7 2.8 2.7 2.7 0 3.3-0.4 3.2-2.8z" fill="#fff" clip-rule="evenodd" fill-rule="evenodd"/>
</svg>
