<?xml version="1.0" encoding="UTF-8" standalone="no"?>
<!-- Generator: Adobe Illustrator 18.1.1, SVG Export Plug-In . SVG Version: 6.00 Build 0)  -->
<svg id="Layer_1" xmlns="http://www.w3.org/2000/svg" xml:space="preserve" viewBox="0 0 33.6 33.6" version="1.1" y="0px" x="0px" xmlns:xlink="http://www.w3.org/1999/xlink" enable-background="new 0 0 33.6 33.6">
<path id="fb" d="m12.7 25.2v-3.8c0.1-2.1 0.5-4.2-2.5-4.9-1.4-0.4-1.5-4.3-0.1-4.7 2.6-0.8 2.6-2.4 2.6-4.5 0.1-5.4 5.7-8.7 10.6-6.6 1.3 0.6 1.2 1.8 1.1 2.9 0 1-0.2 2-1.5 2.2-0.5 0.1-1.1 0-1.7 0.1-1.9 0.4-2.6 1.4-2.4 3.3 0.1 1.6 1 2.3 2.5 2.2 1.4-0.1 2.9-0.3 2.9 2-0.1 2.5-0.4 3.1-3 3.4-1.9 0.2-2.3 1.2-2.3 2.8 0.1 3.7 0.1 7.3 0.2 11 0 1.1 0.2 2.5-1.2 2.8-1.6 0.2-3.3 0.6-4.9-0.4-0.7-0.4-0.6-1.2-0.6-1.9 0.2-2 0.3-4 0.3-5.9z" fill="#fff" clip-rule="evenodd" fill-rule="evenodd"/>
</svg>
